# xmcd CD database file generated by OrangeCD 5.1
#
# Track frame offsets:
#	150
#	16645
#	29692
#	42362
#	51795
#	63985
#	76902
#	90225
#	102820
#	115747
#	127345
#	137332
#	151285
#	163682
#	175797
#	189142
#
# Disc length: 2688 seconds
#
# Revision: 2
# Processed by: cddbd v1.5PL3 Copyright (c) Steve Scherf et al.
# Submitted via: OrangeCD 5.1
#
DISCID=bd0a7e10
DTITLE=Moe Bandy - One Of A Kind
DYEAR=1986
DGENRE=Country
TTITLE0=Barroom Roses
TTITLE1=There's Nobody Home On The Range Anymore
TTITLE2=A Wound Time Can't Erase
TTITLE3=That's As Close To Cheatin' As I Came
TTITLE4=The Barroom Is My Battleground Tonight
TTITLE5=Yippy Cry Yi
TTITLE6=Yesterday Once More
TTITLE7=Two Lonely People
TTITLE8=Soft Lights And Hard Country Music
TTITLE9=Jambalaya (On The Bayou)
TTITLE10=One Of A King
TTITLE11=I Cheated Me Right Out Of You
TTITLE12=Barstool Mountain
TTITLE13=It's A Cheating Situation
TTITLE14=Would You Mind If I Just Call You Julie
TTITLE15=My Woman Loves The Devil Out Of Me
EXTD=
EXTT0=
EXTT1=
EXTT2=
EXTT3=
EXTT4=
EXTT5=
EXTT6=
EXTT7=
EXTT8=
EXTT9=
EXTT10=
EXTT11=
EXTT12=
EXTT13=
EXTT14=
EXTT15=
PLAYORDER=
